<?xml version="1.0" encoding="UTF-8" standalone="no"?>
<svg width="105px" height="65px" viewBox="0 0 105 65" version="1.1" xmlns="http://www.w3.org/2000/svg" xmlns:xlink="http://www.w3.org/1999/xlink" xmlns:sketch="http://www.bohemiancoding.com/sketch/ns">
    <!-- Generator: Sketch 3.5.2 (25235) - http://www.bohemiancoding.com/sketch -->
    <title>Page 1</title>
    <desc>Created with Sketch.</desc>
    <defs>
        <path id="path-1" d="M3.89315432,0.306591841 C3.89315432,0.306591841 0.0596325608,0.306591841 0.0596325608,4.14432004 L0.0596325608,4.14432004 L0.0596325608,61.4036511 C0.0596325608,61.4036511 0.0596325608,65.2413793 3.89315432,65.2413793 L3.89315432,65.2413793 L99.7316244,65.2413793 C99.7316244,65.2413793 103.565146,65.2413793 103.565146,61.4036511 L103.565146,61.4036511 L103.565146,4.14432004 C103.565146,4.14432004 103.565146,0.306591841 99.7316244,0.306591841 L99.7316244,0.306591841 L3.89315432,0.306591841 Z"></path>
        <path id="path-3" d="M0,0.289548387 L104.281536,0.289548387 L104.281536,66 L0,66 L0,0.289548387 Z"></path>
    </defs>
    <g id="Welcome" stroke="none" stroke-width="1" fill="none" fill-rule="evenodd" sketch:type="MSPage">
        <g id="Home" sketch:type="MSArtboardGroup" transform="translate(-302.000000, -498.000000)">
            <g id="Group-12" sketch:type="MSLayerGroup" transform="translate(302.000000, 493.000000)">
                <g id="Page-1" transform="translate(0.000000, 4.000000)">
                    <g id="Group-3" transform="translate(0.758621, 0.758621)">
                        <mask id="mask-2" sketch:name="Clip 2" fill="white">
                            <use xlink:href="#path-1"></use>
                        </mask>
                        <g id="Clip-2"></g>
                        <path d="M103.948498,65.6677936 L-0.425946863,65.6677936 L-0.425946863,-0.136452558 L103.948498,-0.136452558 L103.948498,65.6677936 Z" id="Fill-1" fill="#090A0A" sketch:type="MSShapeGroup" mask="url(#mask-2)"></path>
                    </g>
                    <g id="Group-30">
                        <path d="M39.8163697,23.2773484 C39.8163697,23.0261226 40.0308558,22.8247161 40.2934311,22.8247161 C40.5572831,22.8247161 40.7717692,23.0261226 40.7717692,23.2773484 C40.7717692,23.5277226 40.5572831,23.7312581 40.2934311,23.7312581 C40.0308558,23.7312581 39.8163697,23.5277226 39.8163697,23.2773484" id="Fill-4" fill="#FEFEFE" sketch:type="MSShapeGroup"></path>
                        <path d="M33.8766787,28.0435703 C33.8766787,27.2213381 33.4940934,26.3011703 32.5259268,26.3011703 C31.5496745,26.3011703 31.1428318,27.1727961 31.1428318,28.0435703 C31.1428318,28.8900735 31.5820177,29.7127316 32.5259268,29.7127316 C33.4128099,29.7127316 33.8766787,28.8985897 33.8766787,28.0435703 L33.8766787,28.0435703 Z M34.3890622,29.8506929 C34.3809765,31.1046929 33.9009361,31.8698671 32.5259268,31.8698671 C31.687984,31.8698671 30.858127,31.4955832 30.7845038,30.6001123 L31.2973129,30.6001123 C31.411365,31.218809 31.9565172,31.4385252 32.5259268,31.4385252 C33.469836,31.4385252 33.8766787,30.8768865 33.8766787,29.8506929 L33.8766787,29.2809639 L33.8605071,29.2809639 C33.6243171,29.7940606 33.1281051,30.1444994 32.5259268,30.1444994 C31.1832607,30.1444994 30.6300227,29.18388 30.6300227,27.9869381 C30.6300227,26.8304477 31.3134844,25.8702542 32.5259268,25.8702542 C33.1361909,25.8702542 33.6566602,26.2526284 33.8605071,26.7167574 L33.8766787,26.7167574 L33.8766787,25.9920348 L34.3890622,25.9920348 L34.3890622,29.8506929 Z" id="Fill-6" fill="#F7981C" sketch:type="MSShapeGroup"></path>
                        <mask id="mask-4" sketch:name="Clip 9" fill="white">
                            <use xlink:href="#path-3"></use>
                        </mask>
                        <g id="Clip-9"></g>
                        <path d="M35.2527519,25.9916516 L35.7651354,25.9916516 L35.7651354,30.1926581 L35.2527519,30.1926581 L35.2527519,25.9916516 Z M35.2527519,24.3799742 L35.7651354,24.3799742 L35.7651354,25.2026323 L35.2527519,25.2026323 L35.2527519,24.3799742 Z" id="Fill-8" fill="#F7981C" sketch:type="MSShapeGroup" mask="url(#mask-4)"></path>
                        <path d="M38.1656352,26.4235045 L37.3357781,26.4235045 L37.3357781,30.193169 L36.8233946,30.193169 L36.8233946,26.4235045 L36.1071642,26.4235045 L36.1071642,25.9917368 L36.8233946,25.9917368 L36.8233946,25.6093626 C36.8153088,24.8850658 37.0183046,24.3800594 37.8400759,24.3800594 C37.9864712,24.3800594 38.1086091,24.3885755 38.2716015,24.4124206 L38.2716015,24.8527045 C38.133292,24.8280077 38.0192399,24.8118271 37.8971019,24.8118271 C37.3276923,24.8118271 37.3438639,25.1703561 37.3357781,25.625969 L37.3357781,25.9917368 L38.1656352,25.9917368 L38.1656352,26.4235045 Z" id="Fill-10" fill="#F7981C" sketch:type="MSShapeGroup" mask="url(#mask-4)"></path>
                        <path d="M39.1017564,25.9918645 L39.9558708,25.9918645 L39.9558708,26.4236323 L39.1017564,26.4236323 L39.1017564,29.2569484 C39.1017564,29.5903548 39.1506967,29.7858 39.5166849,29.8104968 C39.6630802,29.8104968 39.8094755,29.8019806 39.9558708,29.7858 L39.9558708,30.2256581 C39.8013897,30.2256581 39.6549944,30.2418387 39.5005134,30.2418387 C38.8170516,30.2418387 38.5808616,30.0136065 38.5889474,29.2978258 L38.5889474,26.4236323 L37.8569709,26.4236323 L37.8569709,25.9918645 L38.5889474,25.9918645 L38.5889474,24.7302 L39.1017564,24.7302 L39.1017564,25.9918645 Z" id="Fill-11" fill="#F7981C" sketch:type="MSShapeGroup" mask="url(#mask-4)"></path>
                        <path d="M45.1072828,27.3108852 C44.9689733,26.6840981 44.5863879,26.3012981 43.9190977,26.3012981 C42.9351852,26.3012981 42.4466335,27.196769 42.4466335,28.0926658 C42.4466335,28.9881368 42.9351852,29.8836077 43.9190977,29.8836077 C44.5540447,29.8836077 45.0749396,29.3871174 45.1400515,28.6866658 L45.652435,28.6866658 C45.5141255,29.6962529 44.8549211,30.3149497 43.9190977,30.3149497 C42.6338833,30.3149497 41.9338244,29.2976981 41.9338244,28.0926658 C41.9338244,26.8876335 42.6338833,25.8699561 43.9190977,25.8699561 C44.8144922,25.8699561 45.5060397,26.3502658 45.6200918,27.3108852 L45.1072828,27.3108852 Z" id="Fill-12" fill="#F7981C" sketch:type="MSShapeGroup" mask="url(#mask-4)"></path>
                        <path d="M48.8507465,27.8972206 L48.8345749,27.8972206 C48.7694631,28.0194271 48.5413588,28.0603045 48.4030493,28.0841497 C47.5327633,28.2391432 46.4505447,28.2306271 46.4505447,29.0532852 C46.4505447,29.5663819 46.9063277,29.8836077 47.386368,29.8836077 C48.1672848,29.8836077 48.8588323,29.3871174 48.8507465,28.5648852 L48.8507465,27.8972206 Z M46.1168996,27.2785239 C46.1654143,26.2932077 46.8573874,25.8699561 47.8174681,25.8699561 C48.5575304,25.8699561 49.3635556,26.0977626 49.3635556,27.2214658 L49.3635556,29.4522658 C49.3635556,29.647711 49.4610106,29.7618271 49.664432,29.7618271 C49.721458,29.7618271 49.7865699,29.7452206 49.8269988,29.72904 L49.8269988,30.1599561 C49.7133722,30.1850787 49.6316632,30.193169 49.4933537,30.193169 C48.9728844,30.193169 48.891601,29.8997884 48.891601,29.4603561 L48.8750039,29.4603561 C48.5171014,30.0053884 48.1511132,30.3149497 47.3455135,30.3149497 C46.572257,30.3149497 45.9377356,29.9321497 45.9377356,29.0856465 C45.9377356,27.9057368 47.0850661,27.8648594 48.1915421,27.7341368 C48.6145564,27.6855948 48.8507465,27.6285368 48.8507465,27.1644077 C48.8507465,26.4724723 48.354109,26.3012981 47.7523563,26.3012981 C47.1178348,26.3012981 46.6458802,26.5946787 46.6292831,27.2785239 L46.1168996,27.2785239 Z" id="Fill-13" fill="#F7981C" sketch:type="MSShapeGroup" mask="url(#mask-4)"></path>
                        <path d="M50.1858375,25.9918645 L50.6577921,25.9918645 L50.6577921,26.9776065 L50.6743892,26.9776065 C50.9344111,26.3014258 51.5038207,25.902871 52.2604801,25.9352323 L52.2604801,26.4479032 C51.333168,26.3993613 50.6986466,27.0832065 50.6986466,27.9539806 L50.6986466,30.192871 L50.1858375,30.192871 L50.1858375,25.9918645 Z" id="Fill-14" fill="#F7981C" sketch:type="MSShapeGroup" mask="url(#mask-4)"></path>
                        <path d="M54.1096569,29.8836077 C55.1995357,29.8836077 55.5825467,28.96344 55.5825467,28.0926658 C55.5825467,27.2214658 55.1995357,26.3012981 54.1096569,26.3012981 C53.132979,26.3012981 52.734222,27.2214658 52.734222,28.0926658 C52.734222,28.96344 53.132979,29.8836077 54.1096569,29.8836077 L54.1096569,29.8836077 Z M56.0945046,30.193169 L55.6234012,30.193169 L55.6234012,29.3947819 L55.606804,29.3947819 C55.3872111,29.9406658 54.7199209,30.3149497 54.1096569,30.3149497 C52.8321026,30.3149497 52.2218385,29.2810916 52.2218385,28.0926658 C52.2218385,26.90424 52.8321026,25.8699561 54.1096569,25.8699561 C54.7360925,25.8699561 55.3463566,26.1871819 55.5659495,26.7901239 L55.5825467,26.7901239 L55.5825467,24.3800594 L56.0945046,24.3800594 L56.0945046,30.193169 Z" id="Fill-15" fill="#F7981C" sketch:type="MSShapeGroup" mask="url(#mask-4)"></path>
                        <path d="M27.3269364,25.5827071 C25.5097623,26.924849 22.8729448,27.6389265 20.60169,27.6389265 C17.4192947,27.6389265 14.5560752,26.4624232 12.3873822,24.5015845 C12.2154528,24.3495716 12.3682316,24.139649 12.5725041,24.2580232 C14.9122754,25.6210297 17.8057102,26.4424103 20.7914932,26.4424103 C22.8086841,26.4424103 25.023764,26.0234168 27.0630844,25.1569006 C27.3707699,25.0266039 27.6290895,25.3608619 27.3269364,25.5827071" id="Fill-16" fill="#F7981C" sketch:type="MSShapeGroup" mask="url(#mask-4)"></path>
                        <path d="M28.0853832,24.717809 C27.8521721,24.4197445 26.5465304,24.5772929 25.9605236,24.6471252 C25.7822108,24.6679897 25.7549744,24.5117187 25.9149879,24.401009 C26.9567776,23.6694735 28.6641553,23.8810994 28.8599164,24.1246606 C29.0612099,24.37248 28.8088483,26.0833703 27.8342982,26.8992155 C27.6827961,27.0248284 27.540231,26.9609574 27.6070451,26.7927639 C27.8245102,26.2421961 28.3173176,25.0145961 28.0853832,24.717809" id="Fill-17" fill="#F7981C" sketch:type="MSShapeGroup" mask="url(#mask-4)"></path>
                        <path d="M26.0041018,19.2330387 L26.0041018,18.5210903 C26.0041018,18.4146387 26.0845341,18.3414 26.1819891,18.3414 L29.3660866,18.3414 C29.4682229,18.3414 29.5499319,18.4159161 29.5499319,18.5210903 L29.5499319,19.1308452 C29.5499319,19.2330387 29.4622649,19.3646129 29.3107628,19.5787935 L27.6612624,21.9343548 C28.2719521,21.9211548 28.9213684,22.0105742 29.4754575,22.3239677 C29.603979,22.395929 29.6358966,22.4994 29.6473869,22.602871 L29.6473869,23.3599548 C29.6473869,23.465129 29.5307813,23.5864839 29.4111968,23.5221871 C28.4328167,23.0099419 27.1301539,22.9511806 26.0479352,23.5294258 C25.9355854,23.5890387 25.8202565,23.4681097 25.8202565,23.3646387 L25.8202565,22.6437484 C25.8202565,22.5253742 25.8232355,22.3295032 25.939841,22.1544968 L27.85064,19.4110258 L26.1862447,19.4110258 C26.0845341,19.4110258 26.0041018,19.3386387 26.0041018,19.2330387" id="Fill-18" fill="#FEFEFE" sketch:type="MSShapeGroup" mask="url(#mask-4)"></path>
                        <path d="M14.3855502,23.6724116 L13.4186604,23.6724116 C13.3267378,23.6664503 13.2522634,23.5966181 13.2450288,23.5106052 L13.2450288,18.534631 C13.2450288,18.4345665 13.3280145,18.3566439 13.4314274,18.3566439 L14.3344821,18.3549406 C14.428107,18.3587729 14.5051347,18.4320116 14.5123694,18.5210052 L14.5123694,19.1720632 L14.528541,19.1720632 C14.7634543,18.5427213 15.2051936,18.2501923 15.8035418,18.2501923 C16.4086991,18.2501923 16.7891566,18.5427213 17.0619455,19.1720632 C17.2951566,18.5427213 17.8305208,18.2501923 18.3982281,18.2501923 C18.8063475,18.2501923 19.2485124,18.415831 19.519599,18.7939471 C19.8272844,19.2125148 19.764726,19.8184374 19.764726,20.3523987 L19.764726,23.4944245 C19.764726,23.5936374 19.680038,23.6724116 19.5766251,23.6724116 L18.6110119,23.6724116 C18.5114291,23.6655987 18.4344013,23.5893794 18.4344013,23.4944245 L18.4344013,20.8565535 C18.4344013,20.6462052 18.4531263,20.1233148 18.4067394,19.924889 C18.3352441,19.5893535 18.117779,19.4943987 17.8377554,19.4943987 C17.6032676,19.4943987 17.3594173,19.6506697 17.2602601,19.9044503 C17.1598261,20.1552503 17.168763,20.5755213 17.168763,20.8565535 L17.168763,23.4944245 C17.168763,23.5936374 17.0836495,23.6724116 16.9832155,23.6724116 L16.0163257,23.6724116 C15.9171684,23.6655987 15.8401406,23.5893794 15.8401406,23.4944245 L15.8401406,20.8565535 C15.8401406,20.3013019 15.930361,19.4841794 15.2417924,19.4841794 C14.5459892,19.4841794 14.5736511,20.2825665 14.5736511,20.8565535 L14.5736511,23.4944245 C14.5736511,23.5936374 14.4889632,23.6724116 14.3855502,23.6724116" id="Fill-19" fill="#FEFEFE" sketch:type="MSShapeGroup" mask="url(#mask-4)"></path>
                        <path d="M32.3019931,19.2654852 C31.5857627,19.2654852 31.5419292,20.2401561 31.5419292,20.8456529 C31.5419292,21.4528529 31.5321411,22.7519884 32.2900772,22.7519884 C33.0429065,22.7519884 33.0782286,21.7040787 33.0782286,21.0674981 C33.0782286,20.6459497 33.0603548,20.1452013 32.9348123,19.7470723 C32.8258669,19.4008916 32.6084019,19.2654852 32.3019931,19.2654852 M32.2900772,18.2499368 C33.7297728,18.2499368 34.5072849,19.4843497 34.5072849,21.0560013 C34.5072849,22.5722981 33.6480638,23.7764787 32.2900772,23.7764787 C30.8827248,23.7764787 30.1115961,22.5412142 30.1115961,21.0019239 C30.1115961,19.4532658 30.890385,18.2499368 32.2900772,18.2499368" id="Fill-20" fill="#FEFEFE" sketch:type="MSShapeGroup" mask="url(#mask-4)"></path>
                        <path d="M36.3725482,23.6724116 L35.4069351,23.6724116 C35.3090545,23.6655987 35.2324523,23.5893794 35.2324523,23.4944245 L35.2303245,18.5180245 C35.2392614,18.4247729 35.3196937,18.3566439 35.415872,18.3566439 L36.3159477,18.3549406 C36.4002101,18.3587729 36.4704288,18.415831 36.4891537,18.4933277 L36.4891537,19.2550955 L36.5053253,19.2550955 C36.7768375,18.5750826 37.157295,18.2501923 37.8271386,18.2501923 C38.259941,18.2501923 38.6846575,18.4056116 38.9574464,18.8365277 C39.2098081,19.2346568 39.2098081,19.9044503 39.2098081,20.38476 L39.2098081,23.5148632 C39.1978922,23.6051342 39.1204389,23.6724116 39.0242606,23.6724116 L38.0543918,23.6724116 C37.9624691,23.6664503 37.8909738,23.5991729 37.8807601,23.5148632 L37.8807601,20.8139729 C37.8807601,20.2710697 37.9420419,19.4726826 37.2743262,19.4726826 C37.0394128,19.4726826 36.8232244,19.6315084 36.7138535,19.8725148 C36.5780974,20.1761148 36.5610747,20.4797148 36.5610747,20.8139729 L36.5610747,23.4944245 C36.5593724,23.5936374 36.4746844,23.6724116 36.3725482,23.6724116" id="Fill-21" fill="#FEFEFE" sketch:type="MSShapeGroup" mask="url(#mask-4)"></path>
                        <path d="M50.0813181,23.6740723 C49.9808841,23.6710916 49.9004518,23.5940206 49.9004518,23.4943819 L49.9004518,18.5196852 C49.9059842,18.431969 49.9834375,18.3604335 50.0753601,18.3566013 L50.429858,18.3566013 C50.5277386,18.3566013 50.6060431,18.4247303 50.6166823,18.5196852 L50.6166823,19.2465368 C50.8690439,18.6682916 51.3401474,18.2199174 51.935091,18.2199174 L51.9716898,18.2199174 L52.0078631,18.2199174 C52.6411078,18.2199174 53.1024232,18.6857497 53.2743526,19.3644852 C53.5424602,18.6963948 54.0467579,18.2199174 54.7089413,18.2199174 L54.7455401,18.2199174 L54.7855435,18.2199174 C55.2545191,18.2199174 55.706472,18.5226658 55.9413854,18.9833884 C56.1677874,19.4228206 56.1584249,20.0100077 56.1584249,20.5030916 L56.1584249,23.4943819 C56.1584249,23.59104 56.0818227,23.6664077 55.9881978,23.6740723 L55.5592256,23.6740723 C55.4677285,23.6710916 55.3928286,23.6050916 55.379636,23.5212077 L55.379636,20.5030916 C55.379636,20.1471174 55.3987865,19.7685755 55.2532424,19.4449626 C55.105996,19.1136852 54.8229934,18.9063174 54.5212659,18.8905626 C54.1829396,18.9080206 53.8718496,19.1532852 53.6722584,19.48584 C53.4109598,19.9163303 53.4181944,20.3033884 53.4181944,20.8066916 L53.4181944,23.5212077 C53.4062786,23.60424 53.3347832,23.6693884 53.2458395,23.6740723 L52.8228252,23.6740723 C52.7228168,23.6710916 52.6436612,23.5940206 52.6436612,23.4943819 L52.6411078,20.3033884 C52.6411078,20.0100077 52.6219573,19.6655303 52.4862012,19.4028077 C52.3300178,19.1021884 52.0487176,18.9063174 51.7572037,18.8905626 C51.450795,18.9080206 51.1431095,19.1413626 50.9592643,19.4126013 C50.7243509,19.7587819 50.680943,20.187569 50.680943,20.6282787 L50.6792407,23.4943819 C50.6792407,23.59104 50.602213,23.6664077 50.5043324,23.6740723 L50.0813181,23.6740723 Z" id="Fill-22" fill="#FEFEFE" sketch:type="MSShapeGroup" mask="url(#mask-4)"></path>
                        <path d="M47.261932,23.0977432 C47.7155872,23.08284 48.0713618,22.8026594 48.2845712,22.3342723 C48.4726722,21.9152787 48.5088454,21.4336916 48.5088454,20.972969 C48.5088454,20.4705174 48.4552239,19.9467755 48.2203105,19.516711 C48.0088034,19.1428529 47.6457941,18.9044013 47.2606553,18.8903497 C46.8346621,18.9061045 46.4525023,19.1956529 46.258869,19.6418981 C46.086514,20.0302335 46.0337437,20.5437561 46.0337437,20.972969 C46.0337437,21.4562594 46.0950254,22.0072529 46.2950422,22.4279497 C46.4873988,22.8243755 46.862324,23.08284 47.261932,23.0977432 L47.261932,23.0977432 Z M47.1614981,23.7790335 C45.7886167,23.7790335 45.171969,22.3768529 45.171969,20.972969 C45.171969,19.4958465 45.8937319,18.2201303 47.280657,18.2201303 L47.3147024,18.2201303 L47.3521524,18.2201303 C48.6999253,18.2201303 49.3693433,19.5805819 49.3693433,20.9844658 C49.3693433,22.4696787 48.6271532,23.7790335 47.2346957,23.7790335 L47.198948,23.7764787 L47.1614981,23.7790335 Z" id="Fill-23" fill="#FEFEFE" sketch:type="MSShapeGroup" mask="url(#mask-4)"></path>
                        <path d="M42.8674348,23.0773471 C43.4828057,23.0569084 43.808365,22.5621213 43.9424188,21.9212826 C43.9671018,21.8395277 44.0296602,21.7811923 44.1190294,21.7811923 L44.5271489,21.7769342 C44.6233272,21.7824697 44.7122708,21.8569858 44.7050362,21.9459794 C44.5156585,23.0360439 43.8581564,23.7790761 42.9197796,23.7790761 L42.8823297,23.7765213 L42.8457309,23.7790761 C41.4817864,23.7790761 40.8940774,22.4075535 40.8940774,21.0151665 C40.8940774,19.6312955 41.4907233,18.2201729 42.8559445,18.2201729 L42.8925433,18.2201729 L42.9287166,18.2201729 C43.8768814,18.2201729 44.5535341,18.950431 44.6995038,20.0447535 C44.6995038,20.1248052 44.6233272,20.1946374 44.5360858,20.2052826 L44.1071135,20.2010245 C44.0181699,20.1861213 43.9585904,20.1103277 43.9453978,20.0226116 C43.8432616,19.4158374 43.4917426,18.9312697 42.9108427,18.910831 C41.9805517,18.9410632 41.7179765,20.085631 41.7179765,20.9627923 C41.7179765,21.8118503 41.9384205,23.046689 42.8674348,23.0773471" id="Fill-24" fill="#FEFEFE" sketch:type="MSShapeGroup" mask="url(#mask-4)"></path>
                        <path d="M24.4420981,23.6607445 C24.3782629,23.7173768 24.2829357,23.7224865 24.2101637,23.6828865 C23.8909879,23.41548 23.8322595,23.2915703 23.6560745,23.0360865 C23.124966,23.5794155 22.7470619,23.7412219 22.0589189,23.7412219 C21.2435312,23.7412219 20.6094353,23.2374929 20.6094353,22.2304606 C20.6094353,21.4427187 21.035003,20.9083316 21.6431393,20.6460348 C22.1670131,20.4139703 22.9019685,20.3730929 23.4632923,20.3100735 L23.4632923,20.1848865 C23.4632923,19.9540994 23.4824429,19.6811574 23.3466868,19.4814542 C23.228379,19.3030413 23.0024025,19.2306542 22.801109,19.2306542 C22.4321418,19.2306542 22.1040291,19.4184348 22.0235968,19.8110284 C22.0061485,19.8970413 21.9435901,19.9864606 21.8559231,19.9890155 L20.9166952,19.8868219 C20.8379652,19.8710671 20.7494471,19.8067703 20.7711511,19.6854155 C20.9869139,18.5442542 22.0163622,18.2019058 22.9381418,18.2019058 C23.4092452,18.2019058 24.0250417,18.3270929 24.3965623,18.6856219 C24.8680913,19.1250542 24.8212789,19.7122413 24.8212789,20.3513768 L24.8212789,21.8612865 C24.8212789,22.3186026 25.0106565,22.5161768 25.1889694,22.7618671 C25.2498256,22.8491574 25.2647204,22.9547574 25.1859904,23.0186284 C24.9859736,23.1851187 24.6361569,23.4887187 24.4420981,23.6624477 L24.4420981,23.6607445 Z M23.4632923,21.2979445 C23.4632923,21.6747832 23.473506,21.98988 23.2841283,22.3237123 C23.127945,22.59708 22.882818,22.7648477 22.6130081,22.7648477 C22.2414875,22.7648477 22.0223201,22.4829639 22.0223201,22.0631187 C22.0223201,21.2383316 22.7619568,21.0867445 23.4632923,21.0867445 L23.4632923,21.2979445 Z" id="Fill-25" fill="#FEFEFE" sketch:type="MSShapeGroup" mask="url(#mask-4)"></path>
                        <path d="M11.7398809,23.6607445 C11.6760458,23.7173768 11.5849743,23.7224865 11.5122022,23.6828865 C11.1900474,23.41548 11.1317447,23.2915703 10.9568363,23.0360865 C10.4240256,23.5794155 10.0482493,23.7412219 9.35797847,23.7412219 C8.54259075,23.7412219 7.90849487,23.2374929 7.90849487,22.2304606 C7.90849487,21.4427187 8.33576484,20.9083316 8.94262439,20.6460348 C9.46905164,20.4139703 10.2027304,20.3730929 10.7640542,20.3100735 L10.7640542,20.1848865 C10.7640542,19.9540994 10.7815024,19.6811574 10.6474486,19.4814542 C10.5291408,19.3030413 10.3018876,19.2306542 10.1035731,19.2306542 C9.73460589,19.2306542 9.40479092,19.4184348 9.32308192,19.8110284 C9.30861262,19.8970413 9.24435189,19.9864606 9.15540824,19.9890155 L8.21745702,19.8868219 C8.13745029,19.8710671 8.04978335,19.8067703 8.07318957,19.6854155 C8.28767569,18.5442542 9.314145,18.2019058 10.2376269,18.2019058 C10.7104326,18.2019058 11.3258035,18.3270929 11.6977497,18.6856219 C12.1684276,19.1250542 12.1233174,19.7122413 12.1233174,20.3513768 L12.1233174,21.8612865 C12.1233174,22.3186026 12.3114183,22.5161768 12.4893056,22.7618671 C12.5493107,22.8491574 12.5654823,22.9547574 12.48505,23.0186284 C12.2884377,23.1851187 11.9352165,23.4887187 11.7424343,23.6624477 L11.7398809,23.6607445 Z M10.7640542,21.2979445 C10.7640542,21.6747832 10.7729911,21.98988 10.5819112,22.3237123 C10.4287068,22.59708 10.1852821,22.7648477 9.91249319,22.7648477 C9.54054701,22.7648477 9.32308192,22.4829639 9.32308192,22.0631187 C9.32308192,21.2383316 10.0639953,21.0867445 10.7640542,21.0867445 L10.7640542,21.2979445 Z" id="Fill-26" fill="#FEFEFE" sketch:type="MSShapeGroup" mask="url(#mask-4)"></path>
                        <path d="M72.3351045,36.0039368 C72.3351045,38.9215626 73.8662971,40.874311 76.4784316,40.874311 C78.3824215,40.874311 80.1068219,39.7237819 81.1873383,37.825111 C82.5291532,35.4925432 82.4682971,33.3200787 82.4682971,30.6954077 L82.4682971,29.2353174 C77.5363929,29.2353174 72.3351045,30.2849303 72.3351045,36.0039368 L72.3351045,36.0039368 Z M64.5514712,20.9363497 C63.9990843,20.8069045 63.3764787,20.3640658 63.53862,19.5196916 C65.0510876,11.6294981 72.2895687,9.23731742 78.7675603,9.23731742 C82.0797537,9.23731742 86.4184165,10.1132013 89.0160817,12.577769 C92.3308286,15.6427239 92.022292,19.7104529 92.022292,24.1413948 L92.022292,34.6183626 C92.022292,37.7672013 93.3411263,39.1549045 94.5893164,40.8440787 C95.0204165,41.4589432 95.1263828,42.1857948 94.5714426,42.6265045 C93.1781339,43.7774594 90.696223,45.9090465 89.3450456,47.0881045 L89.3041911,47.1255755 C88.8556427,47.5322206 88.2317605,47.5130594 87.7270372,47.2354335 C85.4511011,45.3823239 85.0506419,44.5234723 83.8211768,42.7568013 C80.0744787,46.5192271 77.4312777,47.6454852 72.5887428,47.6454852 C66.8550691,47.6454852 62.3942685,44.1572787 62.3942685,37.1723497 C62.3942685,31.7139368 65.3953719,28.0119755 69.6599859,26.1873948 C73.3619993,24.5846594 78.5169009,24.2912787 82.4682971,23.8552529 L82.4682971,22.9797948 C82.4682971,21.3860013 82.5849026,19.4915884 81.6346099,18.1068658 C80.8030506,16.880969 79.214832,16.3700013 77.8189699,16.3700013 C75.2204535,16.3700013 72.8998328,17.6836142 72.3351045,20.3955755 C72.2172222,21.0117174 71.7678227,21.6061432 71.1588353,21.6389303 L64.5514712,20.9363497 Z" id="Fill-27" fill="#FEFEFE" sketch:type="MSShapeGroup" mask="url(#mask-4)"></path>
                        <path d="M93.0532723,52.6569716 C89.1554977,55.5379781 83.5031075,57.0687523 78.6380175,57.0687523 C71.8165928,57.0687523 65.6747997,54.5432942 61.0254725,50.3448426 C60.6620377,50.018249 60.9867458,49.56732 61.4263573,49.8211006 C66.4408215,52.7391523 72.6409174,54.4964555 79.0461369,54.4964555 C83.367777,54.4964555 88.116687,53.604391 92.488544,51.7470232 C93.145195,51.4668426 93.6988585,52.183049 93.0532723,52.6569716" id="Fill-28" fill="#F7981C" sketch:type="MSShapeGroup" mask="url(#mask-4)"></path>
                        <path d="M94.6777919,50.8065445 C94.1790266,50.16528 91.3796422,50.5029445 90.1237919,50.65368 C89.7429088,50.6992413 89.6833294,50.3666865 90.0259114,50.1244026 C92.2571628,48.557009 95.9157684,49.0092155 96.3400594,49.5359381 C96.7656271,50.0630865 96.2289862,53.731409 94.1364698,55.4818994 C93.8151662,55.7505832 93.5087574,55.6075123 93.6491948,55.2540929 C94.1211494,54.0767381 95.1757061,51.443551 94.6777919,50.8065445" id="Fill-29" fill="#F7981C" sketch:type="MSShapeGroup" mask="url(#mask-4)"></path>
                    </g>
                </g>
            </g>
        </g>
    </g>
</svg>