<?xml version="1.0" encoding="UTF-8"?>
<svg width="37px" height="37px" viewBox="0 0 37 37" version="1.1" xmlns="http://www.w3.org/2000/svg" xmlns:xlink="http://www.w3.org/1999/xlink">
    <!-- Generator: Sketch 53.2 (72643) - https://sketchapp.com -->
    <title>ic_clock</title>
    <desc>Created with Sketch.</desc>
    <g id="Page-1" stroke="none" stroke-width="1" fill="none" fill-rule="evenodd">
        <g id="Detail" transform="translate(-674.000000, -255.000000)" fill="#FFFFFF">
            <g id="Group" transform="translate(622.000000, 240.000000)">
                <g id="Group-8" transform="translate(52.000000, 14.000000)">
                    <g id="ic_clock" transform="translate(0.000000, 0.500000)">
                        <path d="M18.5,0.5 C8.28273213,0.5 0,8.78273213 0,19 C0,29.2172679 8.28273213,37.5 18.5,37.5 C28.7172679,37.5 37,29.2172679 37,19 C37,8.78273213 28.7172679,0.5 18.5,0.5 Z M18.5,34.9772727 C9.67599593,34.9772727 2.52272727,27.8240041 2.52272727,19 C2.52272727,10.1759959 9.67599593,3.02272727 18.5,3.02272727 C27.3240041,3.02272727 34.4772727,10.1759959 34.4772727,19 C34.4772727,27.8240041 27.3240041,34.9772727 18.5,34.9772727 Z" id="Shape"></path>
                        <path d="M26.8888889,17.1774194 L20.2222222,17.1774194 L20.2222222,8.66129032 C20.2222222,8.01992739 19.7247608,7.5 19.1111111,7.5 C18.4974614,7.5 18,8.01992739 18,8.66129032 L18,19.5 L26.8888889,19.5 C27.5025386,19.5 28,18.9800726 28,18.3387097 C28,17.6973467 27.5025386,17.1774194 26.8888889,17.1774194 L26.8888889,17.1774194 Z" id="Shape"></path>
                    </g>
                </g>
            </g>
        </g>
    </g>
</svg>