<?xml version="1.0" encoding="UTF-8"?>
<svg width="50px" height="37px" viewBox="0 0 50 37" version="1.1" xmlns="http://www.w3.org/2000/svg" xmlns:xlink="http://www.w3.org/1999/xlink">
    <!-- Generator: Sketch 53.2 (72643) - https://sketchapp.com -->
    <title>ic_facility</title>
    <desc>Created with Sketch.</desc>
    <g id="Page-1" stroke="none" stroke-width="1" fill="none" fill-rule="evenodd">
        <g id="Detail" transform="translate(-305.000000, -568.000000)" fill="#F88525" fill-rule="nonzero">
            <g id="how-it-works" transform="translate(64.000000, 504.000000)">
                <g id="ic_facility" transform="translate(242.000000, 65.000000)">
                    <g id="Group" transform="translate(0.188739, 0.000000)">
                        <path d="M45.6181189,34.0767537 L45.6181189,13.9666562 L36.3416169,13.9666562 L36.3416169,7.78546713 L32.4724756,7.78546713 L32.4724756,0.0471846493 L6.18118905,0.0471846493 L6.18118905,7.7760302 L2.31204781,7.7760302 L2.31204781,34.0673168 L0,34.0673168 L0,35.6149733 L3.86914124,35.6149733 L3.86914124,9.33312362 L34.7939604,9.33312362 L34.7939604,35.6244102 L47.9396036,35.6244102 L47.9396036,34.0767537 L45.6181189,34.0767537 Z M7.72884555,7.78546713 L7.72884555,1.59484115 L30.9248191,1.59484115 L30.9248191,7.7760302 L7.72884555,7.7760302 L7.72884555,7.78546713 Z M44.0704624,34.0767537 L36.3416169,34.0767537 L36.3416169,15.5143127 L44.0704624,15.5143127 L44.0704624,34.0767537 Z" id="Shape" stroke="#F88525" stroke-width="0.5"></path>
                        <path d="M6.9550173,35.6244102 L8.5026738,35.6244102 L8.5026738,28.6693929 L30.1509909,28.6693929 L30.1509909,35.6244102 L31.6986474,35.6244102 L31.6986474,15.5237496 L6.9550173,15.5237496 L6.9550173,35.6244102 Z M8.5026738,27.1122995 L8.5026738,24.7908147 L30.1509909,24.7908147 L30.1509909,27.1122995 L8.5026738,27.1122995 Z M8.5026738,23.2525952 L8.5026738,20.9311104 L30.1509909,20.9311104 L30.1509909,23.2525952 L8.5026738,23.2525952 Z M30.1509909,17.0619692 L30.1509909,19.3834539 L8.5026738,19.3834539 L8.5026738,17.0619692 L30.1509909,17.0619692 L30.1509909,17.0619692 Z" id="Shape" stroke="#F88525" stroke-width="0.5"></path>
                        <rect id="Rectangle" x="18.5530041" y="3.91632589" width="1.5476565" height="1.5476565"></rect>
                        <rect id="Rectangle" x="21.6483171" y="3.91632589" width="1.5476565" height="1.5476565"></rect>
                        <rect id="Rectangle" x="15.467128" y="3.91632589" width="1.5476565" height="1.5476565"></rect>
                    </g>
                </g>
            </g>
        </g>
    </g>
</svg>