<?xml version="1.0" encoding="UTF-8"?>
<svg width="51px" height="37px" viewBox="0 0 51 37" version="1.1" xmlns="http://www.w3.org/2000/svg" xmlns:xlink="http://www.w3.org/1999/xlink">
    <!-- Generator: Sketch 53.2 (72643) - https://sketchapp.com -->
    <title>ic_move</title>
    <desc>Created with Sketch.</desc>
    <g id="Page-1" stroke="none" stroke-width="1" fill="none" fill-rule="evenodd">
        <g id="Detail" transform="translate(-474.000000, -568.000000)" fill="#F88525" fill-rule="nonzero">
            <g id="how-it-works" transform="translate(64.000000, 504.000000)">
                <g id="ic_move" transform="translate(410.000000, 64.000000)">
                    <g id="Group">
                        <g id="Group-6" transform="translate(0.000000, 14.388889)">
                            <path d="M14.2518374,6.57777792 L8.77035582,6.57777792 C8.16493045,6.57777792 7.6740595,7.06864887 7.6740595,7.67407424 L7.6740595,10.509028 L7.47867461,10.3136431 L5.3658418,6.08744218 C4.86570243,5.08583144 3.28887422,5.4592122 3.28887422,6.57777792 L3.28887422,13.0201247 L2.27126709,17.090553 L0.184128728,20.2215281 C-0.151504912,20.7252463 -0.0155385148,21.4061491 0.488179715,21.7417828 C0.67499979,21.866508 0.886443667,21.9259264 1.09521094,21.9259264 C1.44958017,21.9259264 1.79699045,21.7546301 2.00843432,21.4377319 L4.20102696,18.148843 C4.27061613,18.0444593 4.32200502,17.928299 4.35251713,17.8067857 L4.97922074,15.2998375 L6.57776318,16.89838 L6.57776318,20.8296301 C6.57776318,21.4350554 7.06863413,21.9259264 7.6740595,21.9259264 C8.27948487,21.9259264 8.77035582,21.4350554 8.77035582,20.8296301 L8.77035582,16.4444448 C8.77035582,16.1537764 8.65473076,15.8748845 8.4491752,15.669329 L5.48146686,12.7016206 L5.48146686,11.2220488 L5.59709192,11.4532988 C5.65008666,11.5587531 5.7191405,11.6551072 5.80264748,11.7380789 L7.99490553,13.930337 C8.09594359,14.0315089 8.21725613,14.1116032 8.35141594,14.1672077 C8.48544189,14.2226783 8.62756432,14.2518522 8.77035582,14.2518522 L14.2518374,14.2518522 C14.8572628,14.2518522 15.3481337,13.7609812 15.3481337,13.1555558 L15.3481337,7.67407424 C15.3481337,7.06864887 14.8572628,6.57777792 14.2518374,6.57777792 Z M13.1555411,12.0592595 L9.86665214,12.0592595 L9.86665214,8.77037056 L13.1555411,8.77037056 L13.1555411,12.0592595 Z" id="Shape"></path>
                            <circle id="Oval" cx="4.38517054" cy="2.19259264" r="2.19259264"></circle>
                        </g>
                        <g id="Group-7" transform="translate(23.638889, 0.000000)">
                            <path d="M5.65420408,30.1557551 C5.65420408,30.6761738 6.07615274,31.0981224 6.59657143,31.0981224 L19.7897143,31.0981224 C20.310133,31.0981224 20.7320816,30.6761738 20.7320816,30.1557551 C20.7320816,29.6353364 20.310133,29.2133878 19.7897143,29.2133878 L6.59657143,29.2133878 C6.07615274,29.2133878 5.65420408,29.6353364 5.65420408,30.1557551 Z" id="Path"></path>
                            <path d="M19.7897143,32.0404898 L6.59657143,32.0404898 C6.07615274,32.0404898 5.65420408,32.4624385 5.65420408,32.9828571 C5.65420408,33.5032758 6.07615274,33.9252245 6.59657143,33.9252245 L19.7897143,33.9252245 C20.310133,33.9252245 20.7320816,33.5032758 20.7320816,32.9828571 C20.7320816,32.4624385 20.310133,32.0404898 19.7897143,32.0404898 Z" id="Path"></path>
                            <path d="M19.7897143,21.674449 C19.2692956,21.674449 18.8473469,22.0963976 18.8473469,22.6168163 C18.8473469,23.137235 19.2692956,23.5591837 19.7897143,23.5591837 L22.6168163,23.5591837 C23.137235,23.5591837 23.5591837,23.137235 23.5591837,22.6168163 C23.5591837,22.0963976 23.137235,21.674449 22.6168163,21.674449 L19.7897143,21.674449 Z" id="Path"></path>
                            <path d="M25.4439184,-3.19744231e-14 L0.942367347,-3.19744231e-14 C0.421948655,-3.19744231e-14 -4.35207426e-13,0.421948655 -4.35207426e-13,0.942367347 L-4.35207426e-13,4.71183673 L-4.35207426e-13,27.3286531 C-4.35207426e-13,27.8490718 0.421948655,28.2710204 0.942367347,28.2710204 L2.59484618,28.2710204 L0.964914145,35.6056569 C0.902795175,35.8845019 0.970896011,36.176691 1.14943043,36.3993989 C1.32842509,36.622567 1.59898752,36.7523265 1.88473469,36.7523265 L24.501551,36.7523265 C24.7872982,36.7523265 25.0578606,36.622567 25.2368552,36.3993989 C25.4153896,36.176691 25.4834904,35.8845019 25.4213715,35.6056569 L23.7914395,28.2710204 L25.4439184,28.2710204 C25.9643371,28.2710204 26.3862857,27.8490718 26.3862857,27.3286531 L26.3862857,19.7897143 L26.3862857,4.71183673 L26.3862857,0.942367347 C26.3862857,0.421948655 25.9643371,-3.19744231e-14 25.4439184,-3.19744231e-14 Z M21.674449,18.8473469 L18.8473469,18.8473469 L18.8473469,16.0202449 L21.674449,16.0202449 L21.674449,18.8473469 Z M22.6168163,14.1355102 L17.9049796,14.1355102 C17.3845609,14.1355102 16.9626122,14.5574589 16.9626122,15.0778776 L16.9626122,18.8473469 C16.4421936,18.8473469 16.0202449,19.2692956 16.0202449,19.7897143 L16.0202449,26.3862857 L10.3660408,26.3862857 L10.3660408,21.674449 C10.3660408,21.1540303 9.94409216,20.7320816 9.42367347,20.7320816 L9.28149012,20.7320816 L9.88105297,20.1325188 C10.0577468,19.9558249 10.1571372,19.7160918 10.1571372,19.4662356 C10.1571372,19.2163793 10.0577468,18.9766462 9.88105297,18.7999524 L4.54986735,13.4692269 C4.1817551,13.1011147 3.58541327,13.1011147 3.21730102,13.4692269 L1.88473469,14.8017934 L1.88473469,5.65420408 L24.501551,5.65420408 L24.501551,18.8473469 L23.5591837,18.8473469 L23.5591837,15.0778776 C23.5591837,14.5574589 23.137235,14.1355102 22.6168163,14.1355102 Z M7.21546016,20.1329789 L3.21730102,16.1343596 L3.88358423,15.4680764 L7.88220353,19.4662356 L7.21546016,20.1329789 Z M8.48130612,22.6168163 L8.48130612,26.3862857 L4.71183673,26.3862857 L4.71183673,22.6168163 L8.48130612,22.6168163 Z M1.88473469,1.88473469 L24.501551,1.88473469 L24.501551,3.76946939 L1.88473469,3.76946939 L1.88473469,1.88473469 Z M1.88473469,17.4669836 L5.14954516,20.7320816 L3.76946939,20.7320816 C3.2490507,20.7320816 2.82710204,21.1540303 2.82710204,21.674449 L2.82710204,26.3862857 L1.88473469,26.3862857 L1.88473469,17.4669836 Z M23.3268128,34.8675918 L3.05947287,34.8675918 L4.52547992,28.2710204 L9.42367347,28.2710204 L16.9626122,28.2710204 L21.8608058,28.2710204 L23.3268128,34.8675918 Z M24.501551,26.3862857 L22.6168163,26.3862857 L17.9049796,26.3862857 L17.9049796,20.7320816 L22.6168163,20.7320816 L24.501551,20.7320816 L24.501551,26.3862857 Z" id="Shape"></path>
                        </g>
                    </g>
                </g>
            </g>
        </g>
    </g>
</svg>