<?xml version="1.0" encoding="UTF-8"?>
<svg width="41px" height="36px" viewBox="0 0 41 36" version="1.1" xmlns="http://www.w3.org/2000/svg" xmlns:xlink="http://www.w3.org/1999/xlink">
    <!-- Generator: Sketch 53.2 (72643) - https://sketchapp.com -->
    <title>ic_reserve</title>
    <desc>Created with Sketch.</desc>
    <g id="Page-1" stroke="none" stroke-width="1" fill="none" fill-rule="evenodd">
        <g id="Detail" transform="translate(-141.000000, -569.000000)" fill="#F88525" fill-rule="nonzero">
            <g id="how-it-works" transform="translate(64.000000, 504.000000)">
                <g id="ic_reserve" transform="translate(77.000000, 65.000000)">
                    <g id="Group">
                        <rect id="Rectangle" x="6.54782812" y="15.902875" width="4.00390625" height="2.40234375"></rect>
                        <rect id="Rectangle" x="13.9752344" y="15.902875" width="4.00390625" height="2.40234375"></rect>
                        <rect id="Rectangle" x="6.54782812" y="21.1797031" width="4.00390625" height="2.40234375"></rect>
                        <rect id="Rectangle" x="13.9752344" y="21.1797031" width="4.00390625" height="2.40234375"></rect>
                        <rect id="Rectangle" x="6.54782812" y="26.1893906" width="4.11345312" height="2.40234375"></rect>
                        <path d="M28.8101875,35.3381562 C31.1625625,35.3381562 33.0754687,33.42525 33.0754687,31.072875 L33.0754687,28.6352969 L30.673125,28.6352969 L30.673125,31.072875 C30.673125,32.1004375 29.83775,32.9358125 28.8101875,32.9358125 L2.61567187,32.9358125 L2.61567187,12.0495156 L31.8742969,12.0495156 L31.8742969,12.0482344 L31.8839062,12.0482344 L21.1399844,22.7915156 C21.1271719,22.8043281 21.1246094,22.8203437 21.1117969,22.8337969 C21.0272344,22.9254062 20.9586875,23.0291875 20.9055156,23.1464219 C20.894625,23.1675625 20.8805312,23.1874219 20.8728437,23.2104844 C20.8677187,23.2220156 20.8613125,23.2290625 20.8574687,23.2405937 L18.3673594,30.2823437 C18.21425,30.7179687 18.3237969,31.2042031 18.649875,31.5309219 C18.8798594,31.7609062 19.1867187,31.8839062 19.4993437,31.8839062 C19.633875,31.8839062 19.7696875,31.8614844 19.8997344,31.8153594 L26.9408437,29.3239687 C26.9504531,29.3214062 26.9562187,29.3162812 26.9639062,29.3124375 C27.0503906,29.2797656 27.1330312,29.2413281 27.2099062,29.1900781 C27.2175937,29.1836719 27.2233594,29.1772656 27.2316875,29.1715 C27.2861406,29.1311406 27.3412344,29.0901406 27.3892812,29.0414531 L40.625875,15.8061406 C41.0948125,15.3372031 41.0948125,14.5761406 40.625875,14.1072031 L36.074875,9.5555625 C35.849375,9.3300625 35.5444375,9.20385937 35.2254062,9.20385937 C34.9082969,9.20385937 34.6014375,9.3300625 34.3765781,9.5555625 L33.0754687,10.8579531 L33.0754687,2.84373437 L26.9459687,2.84373437 L26.9459687,0.4074375 L24.543625,0.4074375 L24.543625,2.84373437 L17.8458906,2.84373437 L17.8458906,0.4074375 L15.4435469,0.4074375 L15.4435469,2.84373437 L8.74517187,2.84373437 L8.74517187,0.4074375 L6.34282812,0.4074375 L6.34282812,2.84373437 L0.213328125,2.84373437 L0.213328125,12.0475937 L0.213328125,12.0475937 L0.213328125,35.3375156 L28.8101875,35.3375156 L28.8101875,35.3381562 Z M21.4705469,28.71025 L22.4872188,25.8364062 L24.3450312,27.6942187 L21.4705469,28.71025 Z M35.2254062,12.1033281 L38.0781094,14.9560312 L26.5404531,26.4936875 L23.68775,23.6409844 L35.2254062,12.1033281 Z M2.61567188,5.24607812 L6.34282812,5.24607812 L6.34282812,6.97384375 L8.74517187,6.97384375 L8.74517187,5.24607812 L15.4435469,5.24607812 L15.4435469,6.97384375 L17.8458906,6.97384375 L17.8458906,5.24607812 L24.5429844,5.24607812 L24.5429844,6.97384375 L26.9453281,6.97384375 L26.9453281,5.24607812 L30.6724844,5.24607812 L30.6724844,9.64525 L2.61567188,9.64525 L2.61567188,5.24607812 Z" id="Shape"></path>
                    </g>
                </g>
            </g>
        </g>
    </g>
</svg>