<?xml version="1.0" encoding="UTF-8" standalone="no"?>
<svg width="136px" height="37px" viewBox="0 0 136 37" version="1.1" xmlns="http://www.w3.org/2000/svg" xmlns:xlink="http://www.w3.org/1999/xlink" xmlns:sketch="http://www.bohemiancoding.com/sketch/ns">
    <!-- Generator: Sketch 3.5.2 (25235) - http://www.bohemiancoding.com/sketch -->
    <title>Redfin-Logo-Print</title>
    <desc>Created with Sketch.</desc>
    <defs>
        <path id="path-1" d="M0.0120670391,0.153050279 L135.79924,0.153050279 L135.79924,35.987933 L0.0120670391,35.987933"></path>
    </defs>
    <g id="Welcome" stroke="none" stroke-width="1" fill="none" fill-rule="evenodd" sketch:type="MSPage">
        <g id="Home" sketch:type="MSArtboardGroup" transform="translate(-563.000000, -78.000000)">
            <g id="Group-3" sketch:type="MSLayerGroup" transform="translate(345.000000, 75.250000)">
                <g id="Redfin-Logo-Print" transform="translate(218.000000, 3.500000)">
                    <path d="M67.7904134,24.0001341 C67.3694749,25.4097654 66.6963352,26.4849385 65.6507263,27.2332961 C64.5015419,28.0444022 62.7665028,28.4858547 60.6229944,28.4858547 L57.5682235,28.4858547 L57.5635978,9.51626816 L60.1280447,9.51888268 C62.6530726,9.52773184 64.5220559,9.93077095 65.7802458,10.8561117 C66.6995531,11.5413184 67.3399106,12.4984358 67.7586369,13.803486 C68.1767598,15.111352 68.3625922,16.7595084 68.3625922,18.8014525 C68.3625922,20.8448045 68.2103464,22.5868827 67.7904134,24.0001341 L67.7904134,24.0001341 Z M70.0755084,7.1477095 C67.5595307,5.48768715 64.1707039,4.86945251 59.6572291,4.86945251 L51.1212067,4.86522905 L51.1212067,33.1262346 L59.8358212,33.1304581 C62.9386592,33.1304581 65.605676,32.7316425 67.8358659,31.8370726 C70.0755084,30.9233966 71.8274413,29.4731397 73.0152402,27.3833296 C74.2020335,25.2949274 74.8228827,22.5732067 74.8228827,19.1111732 C74.8228827,16.1187486 74.4463911,13.6709497 73.6652514,11.6989944 C72.8839106,9.72422346 71.6900782,8.22650279 70.0755084,7.1477095 L70.0755084,7.1477095 Z" id="Fill-1" fill="#9D1535" sketch:type="MSShapeGroup"></path>
                    <path d="M67.7904134,24.0001341 C67.3694749,25.4097654 66.6963352,26.4849385 65.6507263,27.2332961 C64.5015419,28.0444022 62.7665028,28.4858547 60.6229944,28.4858547 L57.5682235,28.4858547 L57.5635978,9.51626816 L60.1280447,9.51888268 C62.6530726,9.52773184 64.5220559,9.93077095 65.7802458,10.8561117 C66.6995531,11.5413184 67.3399106,12.4984358 67.7586369,13.803486 C68.1767598,15.111352 68.3625922,16.7595084 68.3625922,18.8014525 C68.3625922,20.8448045 68.2103464,22.5868827 67.7904134,24.0001341 L67.7904134,24.0001341 Z M70.0755084,7.1477095 C67.5595307,5.48768715 64.1707039,4.86945251 59.6572291,4.86945251 L51.1212067,4.86522905 L51.1212067,33.1262346 L59.8358212,33.1304581 C62.9386592,33.1304581 65.605676,32.7316425 67.8358659,31.8370726 C70.0755084,30.9233966 71.8274413,29.4731397 73.0152402,27.3833296 C74.2020335,25.2949274 74.8228827,22.5732067 74.8228827,19.1111732 C74.8228827,16.1187486 74.4463911,13.6709497 73.6652514,11.6989944 C72.8839106,9.72422346 71.6900782,8.22650279 70.0755084,7.1477095 L70.0755084,7.1477095 Z" id="Fill-2" fill="#9D1535" sketch:type="MSShapeGroup"></path>
                    <path d="M78.8697654,33.1262346 L85.3244246,33.1262346 L85.3244246,21.0819218 L92.7848715,21.0819218 L92.7848715,16.4773408 L85.3244246,16.4773408 L85.3244246,9.51767598 L96.8498547,9.51888268 L96.8498547,4.86522905 L78.8697654,4.86522905 L78.8697654,33.1262346" id="Fill-3" fill="#9D1535" sketch:type="MSShapeGroup"></path>
                    <path d="M100.935151,33.1262346 L107.398257,33.1262346 L107.398257,4.86522905 L100.935151,4.86522905 C100.935151,4.86522905 100.886883,33.1262346 100.935151,33.1262346" id="Fill-4" fill="#9D1535" sketch:type="MSShapeGroup"></path>
                    <path d="M135.79924,4.86522905 L129.311196,4.86522905 L129.311196,21.0819218 L117.301676,4.86522905 L112.127531,4.86522905 L112.127531,33.1262346 L118.619397,33.1262346 L118.619397,16.4815642 L130.498592,33.1262346 L135.79924,33.1262346 L135.79924,4.86522905" id="Fill-5" fill="#9D1535" sketch:type="MSShapeGroup"></path>
                    <path d="M78.8697654,33.1262346 L85.3244246,33.1262346 L85.3244246,21.0819218 L92.7848715,21.0819218 L92.7848715,16.4773408 L85.3244246,16.4773408 L85.3244246,9.51767598 L96.8498547,9.51888268 L96.8498547,4.86522905 L78.8697654,4.86522905 L78.8697654,33.1262346" id="Fill-6" fill="#9D1535" sketch:type="MSShapeGroup"></path>
                    <g id="Group-10">
                        <mask id="mask-2" sketch:name="Clip 8" fill="white">
                            <use xlink:href="#path-1"></use>
                        </mask>
                        <g id="Clip-8"></g>
                        <path d="M135.79924,4.86522905 L129.311196,4.86522905 L129.311196,21.0819218 L117.301676,4.86522905 L112.127531,4.86522905 L112.127531,33.1262346 L118.619397,33.1262346 L118.619397,16.4815642 L130.498592,33.1262346 L135.79924,33.1262346 L135.79924,4.86522905" id="Fill-7" fill="#9D1535" sketch:type="MSShapeGroup" mask="url(#mask-2)"></path>
                        <path d="M11.3369832,16.4773408 L7.15555307,16.4773408 L7.15555307,4.86724022 L11.3369832,4.86724022 C13.4068827,4.86724022 14.9852514,5.13553073 16.1672179,6.20929609 C16.6038436,6.62259218 16.9413184,7.12277095 17.1808492,7.72592179 C17.4708603,8.45698324 17.6170726,9.33707263 17.6170726,10.397162 C17.6170726,11.9397318 17.4756872,16.4773408 11.3369832,16.4773408 L11.3369832,16.4773408 Z M26.7373408,34.2040223 C26.1947263,33.9868156 25.6501006,33.5713073 24.1895866,31.112648 L17.8495642,20.6002458 L17.5587486,20.1167598 C17.7266816,20.0692961 17.8913966,20.0153966 18.0543017,19.9600894 C21.9917765,18.6101899 24.2903464,15.0059665 24.2903464,9.86239106 C24.2903464,7.32107263 23.2624358,4.97363128 21.299933,3.21667039 C21.0141453,2.97392179 20.7183017,2.7418324 20.4019441,2.53005587 C17.7821899,0.801854749 14.2535866,0.157273743 9.55367598,0.157273743 L0.665094972,0.153050279 L0.660670391,0.153050279 L0.660670391,0.15526257 L0.529944134,0.15526257 C-0.0478659218,0.147821229 -0.102368715,0.480268156 0.124089385,0.781541899 C0.328625698,1.04922905 0.560312849,1.40701676 0.660670391,2.3156648 L0.660670391,30.690905 C0.560715084,31.8459218 0.325407821,32.2139665 0.124089385,32.4802458 C-0.104782123,32.780514 -0.00382122905,33.1240223 0.574189944,33.1173855 L7.15555307,33.1173855 L7.15555307,21.0819218 L10.1469721,21.0819218 L16.1752626,31.3256313 C17.8077318,34.073095 19.236067,35.5951508 22.0792626,35.9207598 C22.4672179,35.9716425 22.8809162,35.9963799 23.3269944,36 L23.7670391,36 C24.7895196,36 25.7876648,35.5897207 26.4091173,35.3258547 C26.4935866,35.2944804 26.5758436,35.2614972 26.6572961,35.2254972 C27.4040447,34.8950615 27.1974972,34.3874413 26.7373408,34.2040223 L26.7373408,34.2040223 Z" id="Fill-9" fill="#9D1535" sketch:type="MSShapeGroup" mask="url(#mask-2)"></path>
                    </g>
                    <path d="M35.2009609,21.0861453 L42.6781006,21.0861453 L42.6781006,16.4823687 L35.2009609,16.4823687 L35.2009609,9.50460335 L46.721162,9.50460335 L46.721162,4.86945251 L28.7336313,4.86945251 L28.7336313,33.1304581 L46.7247821,33.1304581 L46.7247821,28.4444246 L35.2009609,28.4444246 L35.2009609,21.0861453" id="Fill-11" fill="#9D1535" sketch:type="MSShapeGroup"></path>
                </g>
            </g>
        </g>
    </g>
</svg>