<?xml version="1.0" encoding="UTF-8" standalone="no"?>
<svg width="129px" height="37px" viewBox="0 0 129 37" version="1.1" xmlns="http://www.w3.org/2000/svg" xmlns:xlink="http://www.w3.org/1999/xlink" xmlns:sketch="http://www.bohemiancoding.com/sketch/ns">
    <!-- Generator: Sketch 3.4.2 (15857) - http://www.bohemiancoding.com/sketch -->
    <title>AXP_2C_grad + SpareFoot_Black-White+Yellow Copy</title>
    <desc>Created with Sketch.</desc>
    <defs></defs>
    <g id="Welcome" stroke="none" stroke-width="1" fill="none" fill-rule="evenodd" sketch:type="MSPage">
        <g id="Landing-page" sketch:type="MSArtboardGroup" transform="translate(-444.000000, -84.000000)">
            <g id="Group" sketch:type="MSLayerGroup" transform="translate(-211.000000, -1.000000)">
                <g id="AXP_2C_grad-+-SpareFoot_Black-White+Yellow-Copy" transform="translate(655.000000, 84.000000)" sketch:type="MSShapeGroup">
                    <g id="SpareFoot_Black-White+Yellow-Copy" transform="translate(0.048077, 0.500000)">
                        <path d="M13.2537284,3.46920414 C13.2537284,4.59493822 12.5043446,5.60478791 11.3217207,5.60478791 C10.1390968,5.60478791 9.21493545,4.73967546 7.48607295,4.73967546 C6.24513738,4.73967546 5.11987957,5.40313331 5.11987957,6.61463761 C5.11987957,9.58569266 14.7523386,7.68140467 14.7523386,15.1276469 C14.7523386,19.2523428 11.3497733,21.818512 7.3686616,21.818512 C5.1493506,21.818512 0.360385742,21.2999491 0.360385742,18.589358 C0.360385742,17.4618896 1.11134561,16.5409634 2.29286631,16.5409634 C3.64900686,16.5409634 5.26424037,17.6659092 7.14014286,17.6659092 C9.04267959,17.6659092 10.0812579,16.5992998 10.0812579,15.1829876 C10.0812579,11.7797705 0.449429252,13.8261154 0.449429252,7.13461954 C0.449429252,3.09537844 3.76373902,0.58376164 7.60127792,0.58376164 C9.21493545,0.58376164 13.2537284,1.19014445 13.2537284,3.46920414" id="Fill-3" fill="#000000"></path>
                        <path d="M23.8938763,18.0116704 C26.055506,18.0116704 27.123713,15.7614635 27.123713,13.8261154 C27.123713,11.865383 26.055506,9.58569266 23.8938763,9.58569266 C21.6731469,9.58569266 20.6348838,11.6645167 20.6348838,13.6840584 C20.6348838,15.7039155 21.6157808,18.0116704 23.8938763,18.0116704 L23.8938763,18.0116704 Z M16.4832499,8.2581463 C16.4832499,6.87462857 17.3467355,5.95133743 18.5596185,5.95133743 C19.7126137,5.95133743 20.3753181,6.5851541 20.6348838,7.68140467 C21.4135812,6.41219467 23.0284995,5.77916633 24.5865245,5.77916633 C29.0563511,5.77916633 31.2775533,9.96172568 31.2775533,14.0003361 C31.2775533,17.9229045 28.6234263,21.818512 24.4427941,21.818512 C23.1437044,21.818512 21.7322466,21.3295903 20.6348838,20.3780769 L20.6348838,25.4560206 C20.6348838,26.8404843 19.7698222,27.7637754 18.5596185,27.7637754 C17.3467355,27.7637754 16.4832499,26.8404843 16.4832499,25.4560206 L16.4832499,8.2581463 L16.4832499,8.2581463 Z" id="Fill-4" fill="#000000"></path>
                        <path d="M39.8719068,18.0116704 C42.0336942,18.0116704 43.0725876,15.8190116 43.0725876,13.8261154 C43.0725876,11.8374762 42.0615892,9.58569266 39.8719068,9.58569266 C37.5909746,9.58569266 36.5823401,11.8374762 36.5823401,13.8261154 C36.5823401,15.8190116 37.6212336,18.0116704 39.8719068,18.0116704 L39.8719068,18.0116704 Z M47.2253248,18.9346462 C47.2253248,20.0014132 47.2253248,21.6458679 45.2339022,21.6458679 C44.0236984,21.6458679 43.5321467,20.9822524 43.2450011,19.8875785 C42.178055,21.1536352 40.8802261,21.818512 39.2925724,21.818512 C35.4008194,21.818512 32.4299182,18.5005921 32.4299182,13.8261154 C32.4299182,9.26894199 35.4868686,5.77916633 39.2925724,5.77916633 C40.8225448,5.77916633 42.3216278,6.38491848 43.2450011,7.68140467 C43.3608365,6.6737623 44.2255829,5.95133743 45.2339022,5.95133743 C47.2253248,5.95133743 47.2253248,7.59563445 47.2253248,8.66240151 L47.2253248,18.9346462 L47.2253248,18.9346462 Z" id="Fill-5" fill="#000000"></path>
                        <path d="M49.5306849,8.02842718 C49.5306849,6.64427878 50.6264717,5.95133743 51.6653652,5.95133743 C52.761152,5.95133743 53.6834221,6.35606563 53.6834221,7.68140467 L53.7406306,7.68140467 C54.5198007,6.5274484 55.3563369,5.95133743 56.6541657,5.95133743 C57.6634306,5.95133743 58.6725378,6.6737623 58.6725378,8.17411041 C58.6725378,9.52972128 57.4334935,9.61533383 56.1930307,10.1930215 C54.9528831,10.7691324 53.6834221,11.3181249 53.6834221,12.9616336 L53.6834221,19.3379554 C53.6834221,20.7224191 52.8180452,21.6458679 51.6059503,21.6458679 C50.3965346,21.6458679 49.5306849,20.7224191 49.5306849,19.3379554 L49.5306849,8.02842718" id="Fill-6" fill="#000000"></path>
                        <path d="M69.2557924,12.4135871 C69.0261705,10.5969613 67.8727024,9.24150813 65.9395915,9.24150813 C64.094736,9.24150813 62.8544308,10.6552977 62.6522312,12.4135871 L69.2557924,12.4135871 L69.2557924,12.4135871 Z M62.7382803,15.1829876 C63.0279475,17.2329588 64.7297029,18.1851028 66.6623411,18.1851028 C68.7957606,18.1851028 70.2667909,16.5105339 71.3610017,16.5105339 C72.2574255,16.5105339 73.0630723,17.4059182 73.0630723,18.3005142 C73.0630723,20.0886025 69.3724158,21.818512 66.2866248,21.818512 C61.6144409,21.818512 58.4998092,18.4156102 58.4998092,13.8261154 C58.4998092,9.61533383 61.5564444,5.77916633 65.9395915,5.77916633 C70.4401499,5.77916633 73.4093176,9.87453647 73.4093176,13.3384549 C73.4093176,14.5780237 72.8629214,15.1829876 71.59283,15.1829876 L62.7382803,15.1829876 L62.7382803,15.1829876 Z" id="Fill-7" fill="#000000"></path>
                        <path d="M74.9953953,3.18099099 C74.9953953,1.99755121 75.8032484,0.930941815 77.2462261,0.930941815 L84.6280119,0.930941815 C85.8958969,0.930941815 86.5603349,1.91272699 86.5603349,2.92100002 C86.5603349,3.90357352 85.925368,4.91263489 84.6280119,4.91263489 L79.3218067,4.91263489 L79.3218067,9.1262544 L83.7928941,9.1262544 C85.1750385,9.1262544 85.8692627,10.1058323 85.8692627,11.0868291 C85.8692627,12.0966788 85.1750385,13.1065285 83.7928941,13.1065285 L79.3218067,13.1065285 L79.3218067,19.3956611 C79.3218067,20.8376728 78.3995366,21.6458679 77.1574978,21.6458679 C75.9184534,21.6458679 74.9953953,20.8376728 74.9953953,19.3956611 L74.9953953,3.18099099" id="Fill-8" fill="#000000"></path>
                        <path d="M91.2315732,13.8261154 C91.2315732,15.8190116 92.2698363,18.0116704 94.5189335,18.0116704 C96.7689763,18.0116704 97.8064514,15.8190116 97.8064514,13.8261154 C97.8064514,11.8374762 96.796241,9.58569266 94.5189335,9.58569266 C92.2409956,9.58569266 91.2315732,11.8374762 91.2315732,13.8261154 L91.2315732,13.8261154 Z M101.960607,13.8261154 C101.960607,18.1564076 98.9900209,21.818512 94.5189335,21.818512 C90.0478461,21.818512 87.0786784,18.1564076 87.0786784,13.8261154 C87.0786784,9.61533383 90.1357864,5.77916633 94.5189335,5.77916633 C98.9006622,5.77916633 101.960607,9.61533383 101.960607,13.8261154 L101.960607,13.8261154 Z" id="Fill-9" fill="#000000"></path>
                        <path d="M107.265394,13.8261154 C107.265394,15.8190116 108.303499,18.0116704 110.554173,18.0116704 C112.802639,18.0116704 113.842478,15.8190116 113.842478,13.8261154 C113.842478,11.8374762 112.831638,9.58569266 110.554173,9.58569266 C108.275447,9.58569266 107.265394,11.8374762 107.265394,13.8261154 L107.265394,13.8261154 Z M117.994428,13.8261154 C117.994428,18.1564076 115.023842,21.818512 110.554173,21.818512 C106.082455,21.818512 103.113917,18.1564076 103.113917,13.8261154 C103.113917,9.61533383 106.169607,5.77916633 110.554173,5.77916633 C114.936689,5.77916633 117.994428,9.61533383 117.994428,13.8261154 L117.994428,13.8261154 Z" id="Fill-10" fill="#000000"></path>
                        <path d="M120.762026,9.75944041 L119.839756,9.75944041 C118.715128,9.75944041 118.02248,9.06634139 118.02248,7.9420263 C118.02248,6.90348142 118.801493,6.12413918 119.839756,6.12413918 L120.762026,6.12413918 L120.762026,3.6420059 C120.762026,2.25911883 121.627403,1.33567002 122.838395,1.33567002 C124.050805,1.33567002 124.914763,2.25911883 124.914763,3.6420059 L124.914763,6.12413918 L126.097702,6.12413918 C127.164018,6.12413918 128.086918,6.61463761 128.086918,7.9420263 C128.086918,9.24150813 127.164018,9.75944041 126.097702,9.75944041 L124.914763,9.75944041 L124.914763,19.3379554 C124.914763,20.7224191 124.050805,21.6458679 122.838395,21.6458679 C121.627403,21.6458679 120.762026,20.7224191 120.762026,19.3379554 L120.762026,9.75944041" id="Fill-11" fill="#000000"></path>
                        <path d="M122.123682,26.708991 L122.123682,36.0271997 L117.374275,36.0271997 L117.374275,32.3736092 L116.276912,32.3736092 L116.276912,36.0271997 L111.528923,36.0271997 L111.528923,30.3182773 L110.433136,30.3182773 L110.433136,36.0271997 L105.683729,36.0271997 L105.683729,32.3736092 L104.589361,32.3736092 L104.589361,36.0271997 L99.839165,36.0271997 L99.839165,26.708991 L98.7425903,26.708991 L98.7425903,36.0271997 L93.9946012,36.0271997 L93.9946012,32.3736092 L92.8988144,32.3736092 L92.8988144,36.0271997 L88.1494069,36.0271997 L88.1494069,30.3182773 L87.0520442,30.3182773 L87.0520442,36.0271997 L82.3048431,36.0271997 L82.3048431,32.3736092 L81.2076379,32.3736092 L81.2076379,36.0271997 L76.4596488,36.0271997 L76.4596488,26.708991 L75.36465,26.708991 L75.36465,36.0271997 L70.6152426,36.0271997 L70.6152426,32.3736092 L69.5200862,32.3736092 L69.5200862,36.0271997 L64.7713091,36.0271997 L64.7713091,30.3182773 L63.6756799,30.3182773 L63.6756799,36.0271997 L58.9265876,36.0271997 L58.9265876,32.3736092 L57.8314313,32.3736092 L57.8314313,36.0271997 L53.083127,36.0271997 L53.083127,26.708991 L51.9865522,26.708991 L51.9865522,36.0271997 L47.2382479,36.0271997 L47.2382479,32.3736092 L46.141358,32.3736092 L46.141358,36.0271997 L41.3930537,36.0271997 L41.3930537,30.3182773 L40.2972669,30.3182773 L40.2972669,36.0271997 L35.549593,36.0271997 L35.549593,32.3736092 L34.453491,32.3736092 L34.453491,36.0271997 L29.7058172,36.0271997 L29.7058172,26.708991 L28.6092424,26.708991 L28.6092424,36.0271997 L23.8603077,36.0271997 L23.8603077,32.3736092 L22.7645209,32.3736092 L22.7645209,36.0271997 L18.0165318,36.0271997 L18.0165318,30.3182773 L16.9191691,30.3182773 L16.9191691,36.0271997 L12.1708648,36.0271997 L12.1708648,32.3736092 L11.075866,32.3736092 L11.075866,36.0271997 L6.32708893,36.0271997 L6.32708893,26.708991 L5.23130215,26.708991 L5.23130215,37.1234502 L123.217263,37.1234502 L123.217263,26.708991 L122.123682,26.708991" id="Fill-12" fill="#F9C822"></path>
                    </g>
                </g>
            </g>
        </g>
    </g>
</svg>