<?xml version="1.0" encoding="UTF-8" standalone="no"?>
<svg width="43px" height="12px" viewBox="0 0 43 12" version="1.1" xmlns="http://www.w3.org/2000/svg" xmlns:xlink="http://www.w3.org/1999/xlink" xmlns:sketch="http://www.bohemiancoding.com/sketch/ns">
    <!-- Generator: Sketch 3.5.2 (25235) - http://www.bohemiancoding.com/sketch -->
    <title>Shape</title>
    <desc>Created with Sketch.</desc>
    <defs></defs>
    <g id="Welcome" stroke="none" stroke-width="1" fill="none" fill-rule="evenodd" sketch:type="MSPage">
        <g id="Home" sketch:type="MSArtboardGroup" transform="translate(-232.000000, -1277.000000)" fill="#FFCC00">
            <g id="Group-9" sketch:type="MSLayerGroup" transform="translate(-3.000000, 649.000000)">
                <g id="Group-5" transform="translate(1.000000, 395.000000)" sketch:type="MSShapeGroup">
                    <g id="Group-8" transform="translate(74.000000, 116.000000)">
                        <g id="ruler-divider-yellow" transform="translate(160.000000, 117.000000)">
                            <g id="Layer_1">
                                <path d="M42.2,10.7 L42.2,6.5 L40.9,6.5 L40.9,10.7 L35.4,10.7 L35.4,4.2 L34.2,4.2 L34.2,10.7 L28.7,10.7 L28.7,6.5 L27.4,6.5 L27.4,10.7 L22,10.7 L22,0 L20.7,0 L20.7,10.7 L15.2,10.7 L15.2,6.5 L14,6.5 L14,10.7 L8.5,10.7 L8.5,4.2 L7.2,4.2 L7.2,10.7 L1.8,10.7 L1.8,6.5 L0.5,6.5 L0.5,10.7 L0.5,12 L42.2,12 L42.2,10.7 Z" id="Shape"></path>
                            </g>
                        </g>
                    </g>
                </g>
            </g>
        </g>
    </g>
</svg>