<?xml version="1.0" encoding="UTF-8" standalone="no"?>
<svg width="60px" height="55px" viewBox="0 0 60 55" version="1.1" xmlns="http://www.w3.org/2000/svg" xmlns:xlink="http://www.w3.org/1999/xlink" xmlns:sketch="http://www.bohemiancoding.com/sketch/ns">
    <!-- Generator: Sketch 3.5 (25232) - http://www.bohemiancoding.com/sketch -->
    <title>wallet</title>
    <desc>Created with Sketch.</desc>
    <defs></defs>
    <g id="Welcome" stroke="none" stroke-width="1" fill="none" fill-rule="evenodd" sketch:type="MSPage">
        <g id="Home" sketch:type="MSArtboardGroup" transform="translate(-810.000000, -600.000000)" fill="#F88526">
            <g id="wallet" sketch:type="MSLayerGroup" transform="translate(810.000000, 600.000000)">
                <path d="M58.2047334,27.8238648 L55.4410839,27.8238648 L55.4410839,18.2742469 C55.4410839,16.5827887 54.06573,15.2079639 52.3750683,15.2079639 L47.9336988,15.2079639 L46.0771475,7.36157497 C45.9983206,7.02846245 45.7900762,6.73890175 45.4971223,6.55880911 C45.2065214,6.37989356 44.8535649,6.32457098 44.5194328,6.40108093 L39.7027529,7.54284468 L35.619046,1.2195922 C35.2307938,0.616929267 34.4272295,0.446253241 33.830733,0.834688335 L14.0498734,13.6200883 L7.34605263,15.2079639 L3.7847214,15.2079639 C2.09523621,15.2079639 0.721058849,16.5827887 0.721058849,18.2742469 L0.721058849,51.4807391 C0.721058849,53.1710203 2.09523621,54.5458451 3.7847214,54.5458451 L52.3750683,54.5458451 C54.06573,54.5458451 55.4410839,53.1710203 55.4410839,51.4807391 L55.4410839,41.9311212 L58.2047334,41.9311212 C58.918882,41.9311212 59.4989073,41.3508227 59.4989073,40.6363375 L59.4989073,29.1186485 C59.4989073,28.4029863 58.918882,27.8238648 58.2047334,27.8238648 L58.2047334,27.8238648 L58.2047334,27.8238648 Z M45.2735832,15.2079639 L18.579482,15.2079639 L43.857051,9.22017804 L45.2735832,15.2079639 L45.2735832,15.2079639 Z M34.1472173,3.71146218 L37.030872,8.17493452 L21.5772593,11.835641 L34.1472173,3.71146218 L34.1472173,3.71146218 Z M52.8527361,51.4807391 C52.8527361,51.7444041 52.6386091,51.9574549 52.3750683,51.9574549 L3.7847214,51.9574549 C3.52235705,51.9574549 3.30940662,51.7444041 3.30940662,51.4807391 L3.30940662,18.2742469 C3.30940662,18.0105819 3.52235705,17.7963541 3.7847214,17.7963541 L52.3750683,17.7963541 C52.6386091,17.7963541 52.8527361,18.0105819 52.8527361,18.2742469 L52.8527361,27.8238648 L39.6462798,27.8238648 C38.9321311,27.8238648 38.3521059,28.4029863 38.3521059,29.1186485 L38.3521059,40.6363375 C38.3521059,41.3508227 38.9321311,41.9311212 39.6462798,41.9311212 L52.8527361,41.9311212 L52.8527361,51.4807391 L52.8527361,51.4807391 Z M40.9404537,30.4122551 L56.9105595,30.4122551 L56.9105595,39.3415539 L40.9404537,39.3415539 L40.9404537,30.4122551 L40.9404537,30.4122551 Z" id="Mask" sketch:type="MSShapeGroup"></path>
            </g>
        </g>
    </g>
</svg>