<?xml version="1.0" encoding="UTF-8" standalone="no"?>
<svg width="60px" height="51px" viewBox="0 0 60 51" version="1.1" xmlns="http://www.w3.org/2000/svg" xmlns:xlink="http://www.w3.org/1999/xlink" xmlns:sketch="http://www.bohemiancoding.com/sketch/ns">
    <!-- Generator: Sketch 3.5 (25232) - http://www.bohemiancoding.com/sketch -->
    <title>compare</title>
    <desc>Created with Sketch.</desc>
    <defs></defs>
    <g id="Welcome" stroke="none" stroke-width="1" fill="none" fill-rule="evenodd" sketch:type="MSPage">
        <g id="Home" sketch:type="MSArtboardGroup" transform="translate(-491.000000, -604.000000)" fill="#F88526">
            <g id="compare" sketch:type="MSLayerGroup" transform="translate(491.000000, 604.000000)">
                <path d="M20.7446547,28.069994 L1.54412126,28.069994 C0.799610782,28.069994 0.197145064,28.6727436 0.197145064,29.4163797 L0.197145064,49.5313091 C0.197145064,50.2761703 0.799610782,50.8789199 1.54412126,50.8789199 L20.7446547,50.8789199 C21.4879407,50.8789199 22.0916309,50.2761703 22.0916309,49.5313091 L22.0916309,29.4163797 C22.0916309,28.6727436 21.4879407,28.069994 20.7446547,28.069994 L20.7446547,28.069994 L20.7446547,28.069994 Z M2.89109746,30.7639906 L19.396454,30.7639906 L19.396454,48.1849233 L2.89109746,48.1849233 L2.89109746,30.7639906 L2.89109746,30.7639906 Z M28.0452657,35.5100309 L59.0930671,35.5100309 L59.0930671,38.2040275 L28.0452657,38.2040275 L28.0452657,35.5100309 L28.0452657,35.5100309 Z M28.0452657,41.3892894 L50.2495561,41.3892894 L50.2495561,44.083286 L28.0452657,44.083286 L28.0452657,41.3892894 L28.0452657,41.3892894 Z M28.0452657,7.78355058 L59.0930671,7.78355058 L59.0930671,10.4775471 L28.0452657,10.4775471 L28.0452657,7.78355058 L28.0452657,7.78355058 Z M28.0452657,13.6628091 L50.2495561,13.6628091 L50.2495561,16.3568057 L28.0452657,16.3568057 L28.0452657,13.6628091 L28.0452657,13.6628091 Z M20.7446547,0.34351368 L1.54412126,0.34351368 C0.799610782,0.34351368 0.197145064,0.946263252 0.197145064,1.68989941 L0.197145064,21.8048287 C0.197145064,22.54969 0.799610782,23.1524396 1.54412126,23.1524396 L20.7446547,23.1524396 C21.4879407,23.1524396 22.0916309,22.54969 22.0916309,21.8048287 L22.0916309,13.6726099 L19.3976785,13.6726099 L19.3976785,20.458443 L2.89109746,20.458443 L2.89109746,3.03751024 L19.3976785,3.03751024 L19.3976785,4.73059949 L22.0916309,4.73059949 L22.0916309,1.68989941 C22.0916309,0.946263252 21.4879407,0.34351368 20.7446547,0.34351368 M19.8507523,7.37069162 L10.5958013,15.5751914 L7.73776273,12.5479674 C7.22591177,12.0052478 6.3736432,11.9807458 5.83362819,12.4928379 C5.29238867,13.0037049 5.26789819,13.856375 5.77852462,14.3966445 L9.53169012,18.3757717 C9.79618726,18.6563198 10.1537482,18.7972064 10.5125337,18.7972064 C10.8296854,18.7972064 11.1492861,18.6857222 11.4052116,18.4590786 L21.6373326,9.38843257 C22.1944909,8.89471696 22.2459209,8.04327194 21.7524378,7.48585109 C21.2589547,6.92965535 20.4079107,6.87575092 19.8507523,7.37069162" id="Mask" sketch:type="MSShapeGroup"></path>
            </g>
        </g>
    </g>
</svg>