<?xml version="1.0" encoding="UTF-8" standalone="no"?>
<svg width="60px" height="61px" viewBox="0 0 60 61" version="1.1" xmlns="http://www.w3.org/2000/svg" xmlns:xlink="http://www.w3.org/1999/xlink" xmlns:sketch="http://www.bohemiancoding.com/sketch/ns">
    <!-- Generator: Sketch 3.5 (25232) - http://www.bohemiancoding.com/sketch -->
    <title>search</title>
    <desc>Created with Sketch.</desc>
    <defs></defs>
    <g id="Welcome" stroke="none" stroke-width="1" fill="none" fill-rule="evenodd" sketch:type="MSPage">
        <g id="Home" sketch:type="MSArtboardGroup" transform="translate(-170.000000, -597.000000)" fill="#F88526">
            <g id="search" sketch:type="MSLayerGroup" transform="translate(170.000000, 597.000000)">
                <path d="M33.8147181,0 C19.5299659,0 7.90869587,11.6432549 7.90869587,25.9568331 C7.90869587,33.0483672 10.7668171,39.4770862 15.3825438,44.1666491 L0.906079414,58.6723263 L3.18174683,60.9525859 L17.7928488,46.3119994 C22.2066191,49.8064423 27.7648087,51.9107333 33.8147181,51.9107333 C48.0994703,51.9107333 59.7222039,40.2674785 59.7222039,25.9568331 C59.7222039,11.6432549 48.0994703,0 33.8147181,0 L33.8147181,0 L33.8147181,0 Z M33.5925079,48.2184751 C21.0829226,48.2184751 10.9060794,38.0225619 10.9060794,25.4891992 C10.9060794,12.9543702 21.0829226,2.75699053 33.5925079,2.75699053 C46.1035566,2.75699053 56.2803998,12.9543702 56.2803998,25.4891992 C56.2803998,38.0225619 46.1035566,48.2184751 33.5925079,48.2184751 L33.5925079,48.2184751 L33.5925079,48.2184751 Z M15.9298747,25.9539003 L19.1494685,25.9539003 C19.1494685,17.8505468 25.727684,11.2575904 33.8147181,11.2575904 L33.8147181,8.03296602 C23.952517,8.03296602 15.9298747,16.0717977 15.9298747,25.9539003" id="Mask" sketch:type="MSShapeGroup"></path>
            </g>
        </g>
    </g>
</svg>